#N canvas 412 191 1071 725 10;
#X floatatom 649 153 5 0 0 2 start wt_start -;
#X floatatom 722 152 5 0 0 2 end wt_end -;
#X floatatom 775 152 5 0 0 2 dur wt_dur -;
#X obj 649 219 s start;
#X obj 722 218 s end;
#X obj 775 219 s dur;
#X floatatom 651 264 5 0 0 2 attack wt_attack -;
#X floatatom 713 264 5 0 0 2 decay wt_decay -;
#X floatatom 773 264 5 0 0 2 sustain wt_sustain -;
#X floatatom 835 264 5 0 0 2 release wt_release -;
#X obj 651 334 s attack;
#X obj 713 334 s decay;
#X obj 773 333 s sustain;
#X obj 835 333 s release;
#X floatatom 504 188 5 0 0 1 octave_shift wt_saw_os -;
#X obj 504 208 s saw_os;
#X floatatom 438 143 5 0 0 1 amp wt_saw_amp -;
#X obj 438 209 s saw_amp;
#X obj 654 441 s portament;
#X floatatom 654 375 5 0 0 2 portament wt_portment -;
#X floatatom 737 375 5 0 0 2 vib_depth wt_vib_depth -;
#X obj 737 441 s vib_depth;
#X floatatom 819 375 5 0 0 2 vib_freq wt_vib_freq -;
#X obj 819 441 s vib_freq;
#X floatatom 502 303 5 0 0 1 octave_shift wt_sq_os -;
#X obj 502 323 s sq_os;
#X floatatom 504 415 5 0 0 1 octave_shift wt_tri_os -;
#X obj 504 438 s tri_os;
#X floatatom 833 151 5 0 0 2 q wt_q -;
#X obj 833 218 s q;
#X floatatom 441 261 5 0 0 1 amp wt_sq_amp -;
#X floatatom 441 375 5 0 0 1 amp wt_tri_amp -;
#X obj 196 254 notein;
#X floatatom 196 279 5 0 0 0 - - -;
#X floatatom 235 280 5 0 0 0 - - -;
#X floatatom 160 350 5 0 0 0 - - -;
#X floatatom 201 351 5 0 0 0 - - -;
#X floatatom 241 351 5 0 0 0 - - -;
#X obj 160 374 pack 0 0 0;
#X obj 160 398 route 1 2 3 4 5 6 7 8;
#X obj 160 582 +~;
#X obj 190 582 +~;
#X obj 221 582 +~;
#X obj 252 582 +~;
#X obj 221 613 +~;
#X obj 175 613 +~;
#X obj 191 644 +~;
#X obj 441 324 s sq_amp;
#X obj 441 440 s tri_amp;
#X obj 190 688 throw~ mix;
#X obj 160 325 poly 8 1;
#N canvas 118 22 794 646 tone 0;
#X obj 150 496 outlet~;
#X obj 436 68 *~;
#X obj 152 206 tabosc4~ saw;
#X obj 329 205 tabosc4~ square;
#X obj 507 205 tabosc4~ triangle;
#X floatatom 310 11 5 0 0 0 - - -;
#X obj 152 253 *~;
#X obj 329 260 *~;
#X obj 507 259 *~;
#X obj 152 277 +~;
#X obj 152 301 +~;
#X obj 325 421 vline~;
#X obj 150 471 *~;
#X msg 325 390 \$1 \$2 \, \$4 \$3 \$2;
#X obj 325 365 pack 0.5 0 0 0;
#X obj 557 283 moses 1;
#X obj 325 329 / 127;
#X obj 557 404 pack 0 0;
#X obj 507 179 expr~ $v1*pow(2 \, $f2);
#X obj 152 180 expr~ $v1*pow(2 \, $f2);
#X obj 329 179 expr~ $v1*pow(2 \, $f2);
#X obj 150 444 vcf~;
#X obj 49 401 line~;
#X obj 49 355 pack 0 0 0;
#X obj 49 332 f;
#X msg 49 378 \$1 \, \$2 \$3;
#X obj 310 62 line~;
#X obj 310 40 pack 0 50;
#X obj 310 88 +~;
#X obj 436 40 osc~ 7;
#X obj 64 249 r start;
#X obj 77 275 r end;
#X obj 106 297 r dur;
#X obj 364 328 r attack;
#X obj 420 329 r decay;
#X obj 469 328 r sustain;
#X obj 602 378 r release;
#X obj 275 147 r saw_os;
#X obj 452 146 r sq_os;
#X obj 630 146 r tri_os;
#X obj 167 230 r saw_amp;
#X obj 344 236 r sq_amp;
#X obj 522 229 r tri_amp;
#X obj 361 16 r portament;
#X obj 436 16 r vib_freq;
#X obj 483 51 r vib_depth;
#X obj 306 300 t b f b;
#X obj 171 408 r q;
#X obj 500 -33 inlet;
#X obj 500 -6 unpack 0 0;
#X obj 329 116 mtof~;
#X connect 1 0 28 1;
#X connect 2 0 6 0;
#X connect 3 0 7 0;
#X connect 4 0 8 0;
#X connect 5 0 27 0;
#X connect 6 0 9 0;
#X connect 7 0 9 1;
#X connect 8 0 10 1;
#X connect 9 0 10 0;
#X connect 10 0 21 0;
#X connect 11 0 12 1;
#X connect 12 0 0 0;
#X connect 13 0 11 0;
#X connect 14 0 13 0;
#X connect 15 0 17 0;
#X connect 15 1 46 0;
#X connect 16 0 14 0;
#X connect 17 0 11 0;
#X connect 18 0 4 0;
#X connect 19 0 2 0;
#X connect 20 0 3 0;
#X connect 21 0 12 0;
#X connect 22 0 21 1;
#X connect 23 0 25 0;
#X connect 24 0 23 0;
#X connect 25 0 22 0;
#X connect 26 0 28 0;
#X connect 27 0 26 0;
#X connect 28 0 50 0;
#X connect 29 0 1 0;
#X connect 30 0 24 1;
#X connect 31 0 23 1;
#X connect 32 0 23 2;
#X connect 33 0 14 1;
#X connect 34 0 14 2;
#X connect 35 0 14 3;
#X connect 36 0 17 1;
#X connect 37 0 19 1;
#X connect 38 0 20 1;
#X connect 39 0 18 1;
#X connect 40 0 6 1;
#X connect 41 0 7 1;
#X connect 42 0 8 1;
#X connect 43 0 27 1;
#X connect 44 0 29 0;
#X connect 45 0 1 1;
#X connect 46 0 24 0;
#X connect 46 1 16 0;
#X connect 47 0 21 2;
#X connect 48 0 49 0;
#X connect 49 0 5 0;
#X connect 49 1 15 0;
#X connect 50 0 20 0;
#X connect 50 0 19 0;
#X connect 50 0 18 0;
#X restore 160 435 pd tone;
#N canvas 117 22 780 649 tone 0;
#X obj 150 496 outlet~;
#X obj 436 68 *~;
#X obj 152 203 tabosc4~ saw;
#X obj 329 206 tabosc4~ square;
#X obj 507 205 tabosc4~ triangle;
#X floatatom 310 11 5 0 0 0 - - -;
#X obj 152 250 *~;
#X obj 329 256 *~;
#X obj 507 259 *~;
#X obj 152 277 +~;
#X obj 152 301 +~;
#X obj 325 421 vline~;
#X obj 150 471 *~;
#X msg 325 390 \$1 \$2 \, \$4 \$3 \$2;
#X obj 325 365 pack 0.5 0 0 0;
#X obj 557 283 moses 1;
#X obj 325 329 / 127;
#X obj 557 404 pack 0 0;
#X obj 507 179 expr~ $v1*pow(2 \, $f2);
#X obj 152 177 expr~ $v1*pow(2 \, $f2);
#X obj 329 180 expr~ $v1*pow(2 \, $f2);
#X obj 150 444 vcf~;
#X obj 49 401 line~;
#X obj 49 355 pack 0 0 0;
#X obj 49 332 f;
#X msg 49 378 \$1 \, \$2 \$3;
#X obj 310 62 line~;
#X obj 310 40 pack 0 50;
#X obj 310 88 +~;
#X obj 436 40 osc~ 7;
#X obj 64 249 r start;
#X obj 77 275 r end;
#X obj 106 297 r dur;
#X obj 364 328 r attack;
#X obj 420 329 r decay;
#X obj 469 328 r sustain;
#X obj 602 378 r release;
#X obj 275 147 r saw_os;
#X obj 452 147 r sq_os;
#X obj 630 147 r tri_os;
#X obj 167 227 r saw_amp;
#X obj 344 230 r sq_amp;
#X obj 522 229 r tri_amp;
#X obj 361 16 r portament;
#X obj 436 16 r vib_freq;
#X obj 483 51 r vib_depth;
#X obj 306 300 t b f b;
#X obj 171 409 r q;
#X obj 500 -33 inlet;
#X obj 500 -6 unpack 0 0;
#X obj 329 116 mtof~;
#X connect 1 0 28 1;
#X connect 2 0 6 0;
#X connect 3 0 7 0;
#X connect 4 0 8 0;
#X connect 5 0 27 0;
#X connect 6 0 9 0;
#X connect 7 0 9 1;
#X connect 8 0 10 1;
#X connect 9 0 10 0;
#X connect 10 0 21 0;
#X connect 11 0 12 1;
#X connect 12 0 0 0;
#X connect 13 0 11 0;
#X connect 14 0 13 0;
#X connect 15 0 17 0;
#X connect 15 1 46 0;
#X connect 16 0 14 0;
#X connect 17 0 11 0;
#X connect 18 0 4 0;
#X connect 19 0 2 0;
#X connect 20 0 3 0;
#X connect 21 0 12 0;
#X connect 22 0 21 1;
#X connect 23 0 25 0;
#X connect 24 0 23 0;
#X connect 25 0 22 0;
#X connect 26 0 28 0;
#X connect 27 0 26 0;
#X connect 28 0 50 0;
#X connect 29 0 1 0;
#X connect 30 0 24 1;
#X connect 31 0 23 1;
#X connect 32 0 23 2;
#X connect 33 0 14 1;
#X connect 34 0 14 2;
#X connect 35 0 14 3;
#X connect 36 0 17 1;
#X connect 37 0 19 1;
#X connect 38 0 20 1;
#X connect 39 0 18 1;
#X connect 40 0 6 1;
#X connect 41 0 7 1;
#X connect 42 0 8 1;
#X connect 43 0 27 1;
#X connect 44 0 29 0;
#X connect 45 0 1 1;
#X connect 46 0 24 0;
#X connect 46 1 16 0;
#X connect 47 0 21 2;
#X connect 48 0 49 0;
#X connect 49 0 5 0;
#X connect 49 1 15 0;
#X connect 50 0 20 0;
#X connect 50 0 19 0;
#X connect 50 0 18 0;
#X restore 175 460 pd tone;
#N canvas 117 22 782 651 tone 0;
#X obj 150 496 outlet~;
#X obj 436 68 *~;
#X obj 152 206 tabosc4~ saw;
#X obj 329 209 tabosc4~ square;
#X obj 507 209 tabosc4~ triangle;
#X floatatom 310 11 5 0 0 0 - - -;
#X obj 152 253 *~;
#X obj 329 259 *~;
#X obj 507 263 *~;
#X obj 152 277 +~;
#X obj 152 301 +~;
#X obj 325 421 vline~;
#X obj 150 471 *~;
#X msg 325 390 \$1 \$2 \, \$4 \$3 \$2;
#X obj 325 365 pack 0.5 0 0 0;
#X obj 557 283 moses 1;
#X obj 325 329 / 127;
#X obj 557 404 pack 0 0;
#X obj 507 183 expr~ $v1*pow(2 \, $f2);
#X obj 152 180 expr~ $v1*pow(2 \, $f2);
#X obj 329 183 expr~ $v1*pow(2 \, $f2);
#X obj 150 444 vcf~;
#X obj 49 401 line~;
#X obj 49 355 pack 0 0 0;
#X obj 49 332 f;
#X msg 49 378 \$1 \, \$2 \$3;
#X obj 310 62 line~;
#X obj 310 40 pack 0 50;
#X obj 310 88 +~;
#X obj 436 40 osc~ 7;
#X obj 64 249 r start;
#X obj 77 275 r end;
#X obj 106 297 r dur;
#X obj 364 328 r attack;
#X obj 420 329 r decay;
#X obj 469 328 r sustain;
#X obj 602 378 r release;
#X obj 275 150 r saw_os;
#X obj 452 148 r sq_os;
#X obj 630 153 r tri_os;
#X obj 167 230 r saw_amp;
#X obj 344 234 r sq_amp;
#X obj 522 233 r tri_amp;
#X obj 361 16 r portament;
#X obj 436 16 r vib_freq;
#X obj 483 51 r vib_depth;
#X obj 306 300 t b f b;
#X obj 172 406 r q;
#X obj 500 -33 inlet;
#X obj 500 -6 unpack 0 0;
#X obj 329 116 mtof~;
#X connect 1 0 28 1;
#X connect 2 0 6 0;
#X connect 3 0 7 0;
#X connect 4 0 8 0;
#X connect 5 0 27 0;
#X connect 6 0 9 0;
#X connect 7 0 9 1;
#X connect 8 0 10 1;
#X connect 9 0 10 0;
#X connect 10 0 21 0;
#X connect 11 0 12 1;
#X connect 12 0 0 0;
#X connect 13 0 11 0;
#X connect 14 0 13 0;
#X connect 15 0 17 0;
#X connect 15 1 46 0;
#X connect 16 0 14 0;
#X connect 17 0 11 0;
#X connect 18 0 4 0;
#X connect 19 0 2 0;
#X connect 20 0 3 0;
#X connect 21 0 12 0;
#X connect 22 0 21 1;
#X connect 23 0 25 0;
#X connect 24 0 23 0;
#X connect 25 0 22 0;
#X connect 26 0 28 0;
#X connect 27 0 26 0;
#X connect 28 0 50 0;
#X connect 29 0 1 0;
#X connect 30 0 24 1;
#X connect 31 0 23 1;
#X connect 32 0 23 2;
#X connect 33 0 14 1;
#X connect 34 0 14 2;
#X connect 35 0 14 3;
#X connect 36 0 17 1;
#X connect 37 0 19 1;
#X connect 38 0 20 1;
#X connect 39 0 18 1;
#X connect 40 0 6 1;
#X connect 41 0 7 1;
#X connect 42 0 8 1;
#X connect 43 0 27 1;
#X connect 44 0 29 0;
#X connect 45 0 1 1;
#X connect 46 0 24 0;
#X connect 46 1 16 0;
#X connect 47 0 21 2;
#X connect 48 0 49 0;
#X connect 49 0 5 0;
#X connect 49 1 15 0;
#X connect 50 0 20 0;
#X connect 50 0 19 0;
#X connect 50 0 18 0;
#X restore 190 485 pd tone;
#N canvas 119 22 773 657 tone 0;
#X obj 150 496 outlet~;
#X obj 436 68 *~;
#X obj 152 208 tabosc4~ saw;
#X obj 329 207 tabosc4~ square;
#X obj 507 207 tabosc4~ triangle;
#X floatatom 310 11 5 0 0 0 - - -;
#X obj 152 255 *~;
#X obj 329 255 *~;
#X obj 507 254 *~;
#X obj 152 277 +~;
#X obj 152 301 +~;
#X obj 325 421 vline~;
#X obj 150 471 *~;
#X msg 325 390 \$1 \$2 \, \$4 \$3 \$2;
#X obj 325 365 pack 0.5 0 0 0;
#X obj 557 283 moses 1;
#X obj 325 329 / 127;
#X obj 557 404 pack 0 0;
#X obj 507 181 expr~ $v1*pow(2 \, $f2);
#X obj 152 182 expr~ $v1*pow(2 \, $f2);
#X obj 329 181 expr~ $v1*pow(2 \, $f2);
#X obj 150 444 vcf~;
#X obj 49 401 line~;
#X obj 49 355 pack 0 0 0;
#X obj 49 332 f;
#X msg 49 378 \$1 \, \$2 \$3;
#X obj 310 62 line~;
#X obj 310 40 pack 0 50;
#X obj 310 88 +~;
#X obj 436 40 osc~ 7;
#X obj 64 249 r start;
#X obj 77 275 r end;
#X obj 106 297 r dur;
#X obj 364 328 r attack;
#X obj 420 329 r decay;
#X obj 469 328 r sustain;
#X obj 602 378 r release;
#X obj 275 148 r saw_os;
#X obj 452 152 r sq_os;
#X obj 630 153 r tri_os;
#X obj 167 232 r saw_amp;
#X obj 344 232 r sq_amp;
#X obj 522 231 r tri_amp;
#X obj 361 16 r portament;
#X obj 436 16 r vib_freq;
#X obj 483 51 r vib_depth;
#X obj 306 300 t b f b;
#X obj 172 406 r q;
#X obj 500 -33 inlet;
#X obj 500 -6 unpack 0 0;
#X obj 329 116 mtof~;
#X connect 1 0 28 1;
#X connect 2 0 6 0;
#X connect 3 0 7 0;
#X connect 4 0 8 0;
#X connect 5 0 27 0;
#X connect 6 0 9 0;
#X connect 7 0 9 1;
#X connect 8 0 10 1;
#X connect 9 0 10 0;
#X connect 10 0 21 0;
#X connect 11 0 12 1;
#X connect 12 0 0 0;
#X connect 13 0 11 0;
#X connect 14 0 13 0;
#X connect 15 0 17 0;
#X connect 15 1 46 0;
#X connect 16 0 14 0;
#X connect 17 0 11 0;
#X connect 18 0 4 0;
#X connect 19 0 2 0;
#X connect 20 0 3 0;
#X connect 21 0 12 0;
#X connect 22 0 21 1;
#X connect 23 0 25 0;
#X connect 24 0 23 0;
#X connect 25 0 22 0;
#X connect 26 0 28 0;
#X connect 27 0 26 0;
#X connect 28 0 50 0;
#X connect 29 0 1 0;
#X connect 30 0 24 1;
#X connect 31 0 23 1;
#X connect 32 0 23 2;
#X connect 33 0 14 1;
#X connect 34 0 14 2;
#X connect 35 0 14 3;
#X connect 36 0 17 1;
#X connect 37 0 19 1;
#X connect 38 0 20 1;
#X connect 39 0 18 1;
#X connect 40 0 6 1;
#X connect 41 0 7 1;
#X connect 42 0 8 1;
#X connect 43 0 27 1;
#X connect 44 0 29 0;
#X connect 45 0 1 1;
#X connect 46 0 24 0;
#X connect 46 1 16 0;
#X connect 47 0 21 2;
#X connect 48 0 49 0;
#X connect 49 0 5 0;
#X connect 49 1 15 0;
#X connect 50 0 20 0;
#X connect 50 0 19 0;
#X connect 50 0 18 0;
#X restore 206 509 pd tone;
#N canvas 117 22 781 650 tone 0;
#X obj 150 496 outlet~;
#X obj 436 68 *~;
#X obj 152 209 tabosc4~ saw;
#X obj 329 210 tabosc4~ square;
#X obj 507 211 tabosc4~ triangle;
#X floatatom 310 11 5 0 0 0 - - -;
#X obj 152 256 *~;
#X obj 329 260 *~;
#X obj 507 265 *~;
#X obj 152 279 +~;
#X obj 152 301 +~;
#X obj 325 421 vline~;
#X obj 150 471 *~;
#X msg 325 390 \$1 \$2 \, \$4 \$3 \$2;
#X obj 325 365 pack 0.5 0 0 0;
#X obj 557 283 moses 1;
#X obj 325 329 / 127;
#X obj 557 404 pack 0 0;
#X obj 507 185 expr~ $v1*pow(2 \, $f2);
#X obj 152 183 expr~ $v1*pow(2 \, $f2);
#X obj 329 184 expr~ $v1*pow(2 \, $f2);
#X obj 150 444 vcf~;
#X obj 49 401 line~;
#X obj 49 355 pack 0 0 0;
#X obj 49 332 f;
#X msg 49 378 \$1 \, \$2 \$3;
#X obj 310 62 line~;
#X obj 310 40 pack 0 50;
#X obj 310 88 +~;
#X obj 436 40 osc~ 7;
#X obj 64 249 r start;
#X obj 77 275 r end;
#X obj 106 297 r dur;
#X obj 364 328 r attack;
#X obj 420 329 r decay;
#X obj 469 328 r sustain;
#X obj 602 378 r release;
#X obj 275 150 r saw_os;
#X obj 452 150 r sq_os;
#X obj 630 153 r tri_os;
#X obj 167 233 r saw_amp;
#X obj 344 236 r sq_amp;
#X obj 522 235 r tri_amp;
#X obj 361 16 r portament;
#X obj 436 16 r vib_freq;
#X obj 483 51 r vib_depth;
#X obj 306 300 t b f b;
#X obj 172 406 r q;
#X obj 500 -33 inlet;
#X obj 500 -6 unpack 0 0;
#X obj 329 116 mtof~;
#X connect 1 0 28 1;
#X connect 2 0 6 0;
#X connect 3 0 7 0;
#X connect 4 0 8 0;
#X connect 5 0 27 0;
#X connect 6 0 9 0;
#X connect 7 0 9 1;
#X connect 8 0 10 1;
#X connect 9 0 10 0;
#X connect 10 0 21 0;
#X connect 11 0 12 1;
#X connect 12 0 0 0;
#X connect 13 0 11 0;
#X connect 14 0 13 0;
#X connect 15 0 17 0;
#X connect 15 1 46 0;
#X connect 16 0 14 0;
#X connect 17 0 11 0;
#X connect 18 0 4 0;
#X connect 19 0 2 0;
#X connect 20 0 3 0;
#X connect 21 0 12 0;
#X connect 22 0 21 1;
#X connect 23 0 25 0;
#X connect 24 0 23 0;
#X connect 25 0 22 0;
#X connect 26 0 28 0;
#X connect 27 0 26 0;
#X connect 28 0 50 0;
#X connect 29 0 1 0;
#X connect 30 0 24 1;
#X connect 31 0 23 1;
#X connect 32 0 23 2;
#X connect 33 0 14 1;
#X connect 34 0 14 2;
#X connect 35 0 14 3;
#X connect 36 0 17 1;
#X connect 37 0 19 1;
#X connect 38 0 20 1;
#X connect 39 0 18 1;
#X connect 40 0 6 1;
#X connect 41 0 7 1;
#X connect 42 0 8 1;
#X connect 43 0 27 1;
#X connect 44 0 29 0;
#X connect 45 0 1 1;
#X connect 46 0 24 0;
#X connect 46 1 16 0;
#X connect 47 0 21 2;
#X connect 48 0 49 0;
#X connect 49 0 5 0;
#X connect 49 1 15 0;
#X connect 50 0 20 0;
#X connect 50 0 19 0;
#X connect 50 0 18 0;
#X restore 221 434 pd tone;
#N canvas 116 22 780 652 tone 0;
#X obj 150 496 outlet~;
#X obj 436 68 *~;
#X obj 152 209 tabosc4~ saw;
#X obj 329 211 tabosc4~ square;
#X obj 507 211 tabosc4~ triangle;
#X floatatom 310 11 5 0 0 0 - - -;
#X obj 152 256 *~;
#X obj 329 261 *~;
#X obj 507 256 *~;
#X obj 152 279 +~;
#X obj 152 301 +~;
#X obj 325 421 vline~;
#X obj 150 471 *~;
#X msg 325 390 \$1 \$2 \, \$4 \$3 \$2;
#X obj 325 365 pack 0.5 0 0 0;
#X obj 557 283 moses 1;
#X obj 325 329 / 127;
#X obj 557 404 pack 0 0;
#X obj 507 185 expr~ $v1*pow(2 \, $f2);
#X obj 152 183 expr~ $v1*pow(2 \, $f2);
#X obj 329 185 expr~ $v1*pow(2 \, $f2);
#X obj 150 444 vcf~;
#X obj 49 401 line~;
#X obj 49 355 pack 0 0 0;
#X obj 49 332 f;
#X msg 49 378 \$1 \, \$2 \$3;
#X obj 310 62 line~;
#X obj 310 40 pack 0 50;
#X obj 310 88 +~;
#X obj 436 40 osc~ 7;
#X obj 64 249 r start;
#X obj 77 275 r end;
#X obj 106 297 r dur;
#X obj 364 328 r attack;
#X obj 420 329 r decay;
#X obj 469 328 r sustain;
#X obj 602 378 r release;
#X obj 275 151 r saw_os;
#X obj 452 150 r sq_os;
#X obj 630 152 r tri_os;
#X obj 167 233 r saw_amp;
#X obj 344 236 r sq_amp;
#X obj 522 235 r tri_amp;
#X obj 361 16 r portament;
#X obj 436 16 r vib_freq;
#X obj 483 51 r vib_depth;
#X obj 306 300 t b f b;
#X obj 171 412 r q;
#X obj 500 -33 inlet;
#X obj 500 -6 unpack 0 0;
#X obj 329 116 mtof~;
#X connect 1 0 28 1;
#X connect 2 0 6 0;
#X connect 3 0 7 0;
#X connect 4 0 8 0;
#X connect 5 0 27 0;
#X connect 6 0 9 0;
#X connect 7 0 9 1;
#X connect 8 0 10 1;
#X connect 9 0 10 0;
#X connect 10 0 21 0;
#X connect 11 0 12 1;
#X connect 12 0 0 0;
#X connect 13 0 11 0;
#X connect 14 0 13 0;
#X connect 15 0 17 0;
#X connect 15 1 46 0;
#X connect 16 0 14 0;
#X connect 17 0 11 0;
#X connect 18 0 4 0;
#X connect 19 0 2 0;
#X connect 20 0 3 0;
#X connect 21 0 12 0;
#X connect 22 0 21 1;
#X connect 23 0 25 0;
#X connect 24 0 23 0;
#X connect 25 0 22 0;
#X connect 26 0 28 0;
#X connect 27 0 26 0;
#X connect 28 0 50 0;
#X connect 29 0 1 0;
#X connect 30 0 24 1;
#X connect 31 0 23 1;
#X connect 32 0 23 2;
#X connect 33 0 14 1;
#X connect 34 0 14 2;
#X connect 35 0 14 3;
#X connect 36 0 17 1;
#X connect 37 0 19 1;
#X connect 38 0 20 1;
#X connect 39 0 18 1;
#X connect 40 0 6 1;
#X connect 41 0 7 1;
#X connect 42 0 8 1;
#X connect 43 0 27 1;
#X connect 44 0 29 0;
#X connect 45 0 1 1;
#X connect 46 0 24 0;
#X connect 46 1 16 0;
#X connect 47 0 21 2;
#X connect 48 0 49 0;
#X connect 49 0 5 0;
#X connect 49 1 15 0;
#X connect 50 0 20 0;
#X connect 50 0 19 0;
#X connect 50 0 18 0;
#X restore 236 459 pd tone;
#N canvas 117 22 779 652 tone 0;
#X obj 150 496 outlet~;
#X obj 436 68 *~;
#X obj 152 207 tabosc4~ saw;
#X obj 329 205 tabosc4~ square;
#X obj 507 206 tabosc4~ triangle;
#X floatatom 310 11 5 0 0 0 - - -;
#X obj 152 254 *~;
#X obj 329 255 *~;
#X obj 507 254 *~;
#X obj 152 277 +~;
#X obj 152 301 +~;
#X obj 325 421 vline~;
#X obj 150 471 *~;
#X msg 325 390 \$1 \$2 \, \$4 \$3 \$2;
#X obj 325 365 pack 0.5 0 0 0;
#X obj 557 283 moses 1;
#X obj 325 329 / 127;
#X obj 557 404 pack 0 0;
#X obj 507 180 expr~ $v1*pow(2 \, $f2);
#X obj 152 181 expr~ $v1*pow(2 \, $f2);
#X obj 329 179 expr~ $v1*pow(2 \, $f2);
#X obj 150 444 vcf~;
#X obj 49 401 line~;
#X obj 49 355 pack 0 0 0;
#X obj 49 332 f;
#X msg 49 378 \$1 \, \$2 \$3;
#X obj 310 62 line~;
#X obj 310 40 pack 0 50;
#X obj 310 88 +~;
#X obj 436 40 osc~ 7;
#X obj 64 249 r start;
#X obj 77 275 r end;
#X obj 106 297 r dur;
#X obj 364 328 r attack;
#X obj 420 329 r decay;
#X obj 469 328 r sustain;
#X obj 602 378 r release;
#X obj 275 151 r saw_os;
#X obj 452 152 r sq_os;
#X obj 630 153 r tri_os;
#X obj 167 231 r saw_amp;
#X obj 344 231 r sq_amp;
#X obj 522 230 r tri_amp;
#X obj 361 16 r portament;
#X obj 436 16 r vib_freq;
#X obj 483 51 r vib_depth;
#X obj 306 300 t b f b;
#X obj 172 406 r q;
#X obj 500 -33 inlet;
#X obj 500 -6 unpack 0 0;
#X obj 329 116 mtof~;
#X connect 1 0 28 1;
#X connect 2 0 6 0;
#X connect 3 0 7 0;
#X connect 4 0 8 0;
#X connect 5 0 27 0;
#X connect 6 0 9 0;
#X connect 7 0 9 1;
#X connect 8 0 10 1;
#X connect 9 0 10 0;
#X connect 10 0 21 0;
#X connect 11 0 12 1;
#X connect 12 0 0 0;
#X connect 13 0 11 0;
#X connect 14 0 13 0;
#X connect 15 0 17 0;
#X connect 15 1 46 0;
#X connect 16 0 14 0;
#X connect 17 0 11 0;
#X connect 18 0 4 0;
#X connect 19 0 2 0;
#X connect 20 0 3 0;
#X connect 21 0 12 0;
#X connect 22 0 21 1;
#X connect 23 0 25 0;
#X connect 24 0 23 0;
#X connect 25 0 22 0;
#X connect 26 0 28 0;
#X connect 27 0 26 0;
#X connect 28 0 50 0;
#X connect 29 0 1 0;
#X connect 30 0 24 1;
#X connect 31 0 23 1;
#X connect 32 0 23 2;
#X connect 33 0 14 1;
#X connect 34 0 14 2;
#X connect 35 0 14 3;
#X connect 36 0 17 1;
#X connect 37 0 19 1;
#X connect 38 0 20 1;
#X connect 39 0 18 1;
#X connect 40 0 6 1;
#X connect 41 0 7 1;
#X connect 42 0 8 1;
#X connect 43 0 27 1;
#X connect 44 0 29 0;
#X connect 45 0 1 1;
#X connect 46 0 24 0;
#X connect 46 1 16 0;
#X connect 47 0 21 2;
#X connect 48 0 49 0;
#X connect 49 0 5 0;
#X connect 49 1 15 0;
#X connect 50 0 20 0;
#X connect 50 0 19 0;
#X connect 50 0 18 0;
#X restore 252 481 pd tone;
#N canvas 120 22 788 659 tone 0;
#X obj 150 496 outlet~;
#X obj 436 68 *~;
#X obj 152 208 tabosc4~ saw;
#X obj 329 207 tabosc4~ square;
#X obj 507 207 tabosc4~ triangle;
#X floatatom 310 11 5 0 0 0 - - -;
#X obj 152 255 *~;
#X obj 329 255 *~;
#X obj 507 254 *~;
#X obj 152 277 +~;
#X obj 152 301 +~;
#X obj 325 421 vline~;
#X obj 150 471 *~;
#X msg 325 390 \$1 \$2 \, \$4 \$3 \$2;
#X obj 325 365 pack 0.5 0 0 0;
#X obj 557 283 moses 1;
#X obj 325 329 / 127;
#X obj 557 404 pack 0 0;
#X obj 507 181 expr~ $v1*pow(2 \, $f2);
#X obj 152 182 expr~ $v1*pow(2 \, $f2);
#X obj 329 181 expr~ $v1*pow(2 \, $f2);
#X obj 150 444 vcf~;
#X obj 49 401 line~;
#X obj 49 355 pack 0 0 0;
#X obj 49 332 f;
#X msg 49 378 \$1 \, \$2 \$3;
#X obj 310 62 line~;
#X obj 310 40 pack 0 50;
#X obj 310 88 +~;
#X obj 436 40 osc~ 7;
#X obj 64 249 r start;
#X obj 77 275 r end;
#X obj 106 297 r dur;
#X obj 364 328 r attack;
#X obj 420 329 r decay;
#X obj 469 328 r sustain;
#X obj 602 378 r release;
#X obj 275 153 r saw_os;
#X obj 452 153 r sq_os;
#X obj 630 153 r tri_os;
#X obj 167 232 r saw_amp;
#X obj 344 231 r sq_amp;
#X obj 522 231 r tri_amp;
#X obj 361 16 r portament;
#X obj 436 16 r vib_freq;
#X obj 483 51 r vib_depth;
#X obj 306 300 t b f b;
#X obj 172 406 r q;
#X obj 500 -33 inlet;
#X obj 500 -6 unpack 0 0;
#X obj 329 116 mtof~;
#X connect 1 0 28 1;
#X connect 2 0 6 0;
#X connect 3 0 7 0;
#X connect 4 0 8 0;
#X connect 5 0 27 0;
#X connect 6 0 9 0;
#X connect 7 0 9 1;
#X connect 8 0 10 1;
#X connect 9 0 10 0;
#X connect 10 0 21 0;
#X connect 11 0 12 1;
#X connect 12 0 0 0;
#X connect 13 0 11 0;
#X connect 14 0 13 0;
#X connect 15 0 17 0;
#X connect 15 1 46 0;
#X connect 16 0 14 0;
#X connect 17 0 11 0;
#X connect 18 0 4 0;
#X connect 19 0 2 0;
#X connect 20 0 3 0;
#X connect 21 0 12 0;
#X connect 22 0 21 1;
#X connect 23 0 25 0;
#X connect 24 0 23 0;
#X connect 25 0 22 0;
#X connect 26 0 28 0;
#X connect 27 0 26 0;
#X connect 28 0 50 0;
#X connect 29 0 1 0;
#X connect 30 0 24 1;
#X connect 31 0 23 1;
#X connect 32 0 23 2;
#X connect 33 0 14 1;
#X connect 34 0 14 2;
#X connect 35 0 14 3;
#X connect 36 0 17 1;
#X connect 37 0 19 1;
#X connect 38 0 20 1;
#X connect 39 0 18 1;
#X connect 40 0 6 1;
#X connect 41 0 7 1;
#X connect 42 0 8 1;
#X connect 43 0 27 1;
#X connect 44 0 29 0;
#X connect 45 0 1 1;
#X connect 46 0 24 0;
#X connect 46 1 16 0;
#X connect 47 0 21 2;
#X connect 48 0 49 0;
#X connect 49 0 5 0;
#X connect 49 1 15 0;
#X connect 50 0 20 0;
#X connect 50 0 19 0;
#X connect 50 0 18 0;
#X restore 267 506 pd tone;
#X obj 438 169 knob 32 32 0 1 0 0 empty empty empty 0 -8 0 8 -262144
-1 -1 775 1;
#X obj 441 284 knob 32 32 0 1 0 0 empty empty empty 0 -8 0 8 -262144
-1 -1 2480 1;
#X obj 441 399 knob 32 32 0 1 0 0 empty empty empty 0 -8 0 8 -262144
-1 -1 1240 1;
#X obj 649 176 knob 32 32 200 4000 0 0 empty empty empty 0 -8 0 8 -262144
-1 -1 0 1;
#X obj 722 176 knob 32 32 200 4000 0 0 empty empty empty 0 -8 0 8 -262144
-1 -1 245 1;
#X obj 775 176 knob 32 32 100 1000 0 0 empty empty empty 0 -8 0 8 -262144
-1 -1 0 1;
#X obj 833 176 knob 32 32 0 10 0 0 empty empty empty 0 -8 0 8 -262144
-1 -1 0 1;
#X obj 651 291 knob 32 32 0 100 0 0 empty empty empty 0 -8 0 8 -262144
-1 -1 310 1;
#X obj 713 291 knob 32 32 0 100 0 0 empty empty empty 0 -8 0 8 -262144
-1 -1 2790 1;
#X obj 835 291 knob 32 32 0 500 0 0 empty empty empty 0 -8 0 8 -262144
-1 -1 62 1;
#X obj 773 291 knob 32 32 0 1 0 0 empty empty empty 0 -8 0 8 -262144
-1 -1 2790 1;
#X obj 654 399 knob 32 32 0 100 0 0 empty empty empty 0 -8 0 8 -262144
-1 -1 310 1;
#X obj 737 399 knob 32 32 0 2 0 0 empty empty empty 0 -8 0 8 -262144
-1 -1 0 1;
#X obj 819 401 knob 32 32 0 40 0 0 empty empty empty 0 -8 0 8 -262144
-1 -1 0 1;
#X msg 440 482 \; wt_saw_amp 1 \; wt_saw_os 0 \; wt_sq_amp 0.5 \; wt_sq_os
1 \; wt_tri_amp 0.4 \; wt_tri_os -1 \; wt_start 50 \; wt_end 9000 \;
wt_dur 50 \; wt_q 2 \; wt_attack 10 \; wt_decay 90 \; wt_sustain 0.9
\; wt_release 100 \; wt_portment 10 \; wt_vib_depth 0.1 \; wt_vib_freq
5 \;;
#X msg 629 477 \; wt_saw_amp 0.5 \; wt_saw_os -1 \; wt_sq_amp 0.3 \;
wt_sq_os 0 \; wt_tri_amp 0.75 \; wt_tri_os 1 \; wt_start 0 \; wt_end
0 \; wt_dur 0 \; wt_q 0 \; wt_attack 10 \; wt_decay 90 \; wt_sustain
0.7 \; wt_release 20 \; wt_portment 0 \; wt_vib_depth 0 \; wt_vib_freq
0 \;;
#X msg 775 478 \; wt_saw_amp 0.25 \; wt_saw_os -1 \; wt_sq_amp 0.8
wt_sq_os 1 \; wt_tri_amp 0.4 \; wt_tri_os -1 \; wt_start 50 \; wt_end
500 \; wt_dur 50 \; wt_q 0 \; wt_attack 10 \; wt_decay 90 \; wt_sustain
0.9 \; wt_release 10 \; wt_portment 10 \; wt_vib_depth 0 \; wt_vib_freq
0 \;;
#X obj 190 665 *~ 0.5;
#X msg 103 299 stop;
#X connect 0 0 62 0;
#X connect 1 0 63 0;
#X connect 2 0 64 0;
#X connect 6 0 66 0;
#X connect 7 0 67 0;
#X connect 8 0 69 0;
#X connect 9 0 68 0;
#X connect 14 0 15 0;
#X connect 16 0 59 0;
#X connect 19 0 70 0;
#X connect 20 0 71 0;
#X connect 22 0 72 0;
#X connect 24 0 25 0;
#X connect 26 0 27 0;
#X connect 28 0 65 0;
#X connect 30 0 60 0;
#X connect 31 0 61 0;
#X connect 32 0 33 0;
#X connect 32 1 34 0;
#X connect 33 0 50 0;
#X connect 34 0 50 1;
#X connect 35 0 38 0;
#X connect 36 0 38 1;
#X connect 37 0 38 2;
#X connect 38 0 39 0;
#X connect 39 0 51 0;
#X connect 39 1 52 0;
#X connect 39 2 53 0;
#X connect 39 3 54 0;
#X connect 39 4 55 0;
#X connect 39 5 56 0;
#X connect 39 6 57 0;
#X connect 39 7 58 0;
#X connect 40 0 45 0;
#X connect 41 0 45 1;
#X connect 42 0 44 0;
#X connect 43 0 44 1;
#X connect 44 0 46 1;
#X connect 45 0 46 0;
#X connect 46 0 76 0;
#X connect 50 0 35 0;
#X connect 50 1 36 0;
#X connect 50 2 37 0;
#X connect 51 0 40 0;
#X connect 52 0 40 1;
#X connect 53 0 41 0;
#X connect 54 0 41 1;
#X connect 55 0 42 0;
#X connect 56 0 42 1;
#X connect 57 0 43 0;
#X connect 58 0 43 1;
#X connect 59 0 17 0;
#X connect 60 0 47 0;
#X connect 61 0 48 0;
#X connect 62 0 3 0;
#X connect 63 0 4 0;
#X connect 64 0 5 0;
#X connect 65 0 29 0;
#X connect 66 0 10 0;
#X connect 67 0 11 0;
#X connect 68 0 13 0;
#X connect 69 0 12 0;
#X connect 70 0 18 0;
#X connect 71 0 21 0;
#X connect 72 0 23 0;
#X connect 76 0 49 0;
#X connect 77 0 50 0;
