#N canvas 330 146 450 300 10;
#X obj 134 131 getspi;
#X obj 135 105 bng 15 250 50 0 empty empty empty 17 7 0 10 -262144
-1 -1;
#X floatatom 132 163 5 0 0 0 - - -;
#X obj 138 69 metro 50;
#X obj 141 43 tgl 15 0 empty empty empty 17 7 0 10 -262144 -1 -1 1
1;
#X obj 140 221 osc~;
#X obj 136 196 * 10;
#X obj 147 266 dac~;
#X connect 0 0 2 0;
#X connect 1 0 0 0;
#X connect 2 0 6 0;
#X connect 3 0 1 0;
#X connect 4 0 3 0;
#X connect 5 0 7 0;
#X connect 5 0 7 1;
#X connect 6 0 5 0;
